#!OML:ASF F:\VICON\USERDATA\INSTALL\rory3\rory3.ASF
:FULLY-SPECIFIED
:DEGREES
1715
root 1.4857 16.7422 0.160599 4.07387 -4.24489 12.9391
lowerback 5.84025 -1.06401 13.107
upperback -1.45272 0.328034 16.4424
thorax -5.00189 0.0591946 10.6783
lowerneck -11.8742 -8.03454 -5.70492
upperneck 28.9462 -19.2277 25.6174
head 16.0149 -6.0247 8.56095
rclavicle -2.38542e-015 0
rhumerus -318.728 -48.5473 -441.854
rradius 109.574
rwrist -58.4417
rhand -53.2215 -13.9675
rfingers 7.12502
rthumb -25.678 -42.2556
lclavicle -2.38542e-015 0
lhumerus 261.579 -60.662 -211.116
lradius 91.2357
lwrist -16.3457
lhand -24.2738 2.34943
lfingers 7.12502
lthumb 2.21297 32.3177
rfemur -20.7626 7.58288 -3.34528
rtibia 39.8452
rfoot -24.4583 -4.79002
rtoes -20.0555
lfemur -15.4534 -2.09938 -36.5382
ltibia 29.0693
lfoot -17.238 -0.281499
ltoes -8.14643
1716
root 1.49092 16.7445 0.158648 4.06015 -4.15527 12.8607
lowerback 5.82217 -1.096 13.2453
upperback -1.47919 0.298875 16.4468
thorax -5.01899 0.0407268 10.6105
lowerneck -11.7346 -8.00117 -5.71075
upperneck 28.9407 -19.1885 25.6734
head 15.9789 -6.01439 8.60195
rclavicle -2.70347e-014 5.40694e-014
rhumerus -319.022 -48.5832 -441.695
rradius 109.551
rwrist -58.4656
rhand -53.2242 -14.4104
rfingers 7.12502
rthumb -25.6805 -42.6981
lclavicle -2.70347e-014 5.40694e-014
lhumerus 261.515 -60.6244 -211.092
lradius 91.2196
lwrist -16.3739
lhand -24.3007 2.4131
lfingers 7.12502
lthumb 2.18697 32.3816
rfemur -20.6959 7.55276 -3.25767
rtibia 39.8298
rfoot -24.4858 -4.83635
rtoes -20.3675
lfemur -15.4101 -2.16084 -36.4613
ltibia 29.0216
lfoot -17.2186 -0.387551
ltoes -7.25927
1717
root 1.49625 16.7436 0.157524 4.03959 -4.09879 12.9139
lowerback 5.79762 -1.1249 13.2342
upperback -1.51482 0.261588 16.4324
thorax -5.0409 0.0222306 10.6043
lowerneck -11.5264 -7.96405 -5.74298
upperneck 28.9077 -19.133 25.7491
head 15.914 -6.00553 8.65919
rclavicle 1.27222e-014 -9.85972e-014
rhumerus -319.207 -48.5741 -441.704
rradius 109.541
rwrist -58.3936
rhand -53.2128 -14.9536
rfingers 7.12502
rthumb -25.6695 -43.2429
lclavicle 1.27222e-014 -9.85972e-014
lhumerus 261.425 -60.5381 -210.971
lradius 91.1252
lwrist -16.4068
lhand -24.3364 2.46775
lfingers 7.12502
lthumb 2.15246 32.4366
rfemur -20.6398 7.45091 -3.33392
rtibia 39.8203
rfoot -24.523 -4.74157
rtoes -20.409
lfemur -15.3822 -2.21766 -36.5355
ltibia 29.0036
lfoot -17.2361 -0.471394
ltoes -6.61836
1718
root 1.50061 16.7417 0.153828 4.03431 -4.10425 13.0144
lowerback 5.80649 -1.12786 13.1166
upperback -1.52893 0.253774 16.4262
thorax -5.06048 0.0216905 10.6649
lowerneck -11.449 -7.9563 -5.77471
upperneck 28.9833 -19.1408 25.7564
head 15.9405 -6.01248 8.68133
rclavicle -1.03368e-014 1.27222e-013
rhumerus -319.193 -48.5621 -441.974
rradius 109.671
rwrist -58.2418
rhand -53.1263 -14.7449
rfingers 7.12502
rthumb -25.5867 -43.0462
lclavicle -1.03368e-014 1.27222e-013
lhumerus 261.416 -60.4767 -210.921
lradius 91.0627
lwrist -16.4439
lhand -24.4795 2.50587
lfingers 7.12502
lthumb 2.01425 32.4761
rfemur -20.6595 7.3826 -3.46899
rtibia 39.8202
rfoot -24.5205 -4.71474
rtoes -20.97
lfemur -15.377 -2.2237 -36.6604
ltibia 28.9908
lfoot -17.2157 -0.464929
ltoes -6.69463
1719
root 1.50433 16.7411 0.150466 4.03701 -4.12093 13.006
lowerback 5.82791 -1.11449 13.1055
upperback -1.52724 0.275944 16.4358
thorax -5.07319 0.0330557 10.6815
lowerneck -11.4472 -7.97406 -5.75067
upperneck 29.0689 -19.1843 25.7055
head 15.9822 -6.02604 8.65452
rclavicle -2.38542e-015 3.18055e-015
rhumerus -319.221 -48.5404 -442.108
rradius 109.752
rwrist -58.1008
rhand -53.031 -14.637
rfingers 7.12502
rthumb -25.4955 -42.9514
lclavicle -2.38542e-015 3.18055e-015
lhumerus 261.426 -60.4943 -210.922
lradius 91.0726
lwrist -16.3972
lhand -24.3885 2.53198
lfingers 7.12502
lthumb 2.10213 32.5014
rfemur -20.6933 7.39368 -3.47541
rtibia 39.8347
rfoot -24.5038 -4.75914
rtoes -21.4805
lfemur -15.3808 -2.21691 -36.6674
ltibia 28.9857
lfoot -17.171 -0.424515
ltoes -6.73307
1720
root 1.50865 16.7409 0.148587 4.01304 -4.13492 12.9604
lowerback 5.8772 -1.09537 13.1611
upperback -1.51953 0.316531 16.4432
thorax -5.0973 0.0513524 10.6569
lowerneck -11.4306 -8.01314 -5.69217
upperneck 29.1182 -19.2504 25.6423
head 16.0006 -6.04845 8.60489
rclavicle -7.95139e-016 1.62208e-013
rhumerus -319.297 -48.5531 -442.075
rradius 109.743
rwrist -58.0537
rhand -53.1234 -14.5165
rfingers 7.12502
rthumb -25.5839 -42.8182
lclavicle -7.95139e-016 1.62208e-013
lhumerus 261.381 -60.5569 -210.843
lradius 91.0842
lwrist -16.3327
lhand -24.3122 2.47829
lfingers 7.12502
lthumb 2.17588 32.4469
rfemur -20.6802 7.41509 -3.43614
rtibia 39.8383
rfoot -24.4843 -4.77037
rtoes -21.6631
lfemur -15.3671 -2.19271 -36.6398
ltibia 28.9913
lfoot -17.1416 -0.377512
ltoes -7.01915
1721
root 1.51399 16.7395 0.14737 4.01638 -4.11369 12.9634
lowerback 5.84827 -1.08836 13.1835
upperback -1.4743 0.310538 16.4463
thorax -5.02963 0.0487425 10.644
lowerneck -11.5621 -8.04287 -5.66234
upperneck 29.1718 -19.3191 25.6212
head 16.0727 -6.06174 8.57915
rclavicle -7.15625e-015 2.54444e-014
rhumerus -319.16 -48.5611 -442.236
rradius 109.74
rwrist -58.0633
rhand -53.3005 -13.4653
rfingers 7.12502
rthumb -25.7536 -41.7425
lclavicle -7.15625e-015 2.54444e-014
lhumerus 261.573 -60.6456 -211.005
lradius 91.071
lwrist -16.3383
lhand -24.3217 2.38725
lfingers 7.12502
lthumb 2.16665 32.356
rfemur -20.6649 7.37626 -3.46138
rtibia 39.8087
rfoot -24.4618 -4.70638
rtoes -21.595
lfemur -15.3807 -2.2188 -36.667
ltibia 29.0098
lfoot -17.1272 -0.313518
ltoes -7.55097
1722
root 1.51893 16.7386 0.146596 4.03082 -4.09857 12.9835
lowerback 5.82241 -1.06824 13.1846
upperback -1.46346 0.328137 16.4352
thorax -5.00374 0.0575561 10.6258
lowerneck -11.6081 -8.07062 -5.66684
upperneck 29.1995 -19.3825 25.6461
head 16.1223 -6.08052 8.58358
rclavicle 3.97569e-015 1.59028e-013
rhumerus -319.154 -48.6254 -442.266
rradius 109.713
rwrist -58.1086
rhand -53.3867 -13.2026
rfingers 7.12502
rthumb -25.8361 -41.4678
lclavicle 3.97569e-015 1.59028e-013
lhumerus 261.633 -60.6971 -211.056
lradius 91.0846
lwrist -16.3776
lhand -24.2598 2.36835
lfingers 7.12502
lthumb 2.22645 32.3365
rfemur -20.6735 7.37494 -3.50597
rtibia 39.7534
rfoot -24.5162 -4.7886
rtoes -21.7124
lfemur -15.4123 -2.25469 -36.7053
ltibia 29.0203
lfoot -17.1587 -0.309937
ltoes -7.50973
1723
root 1.52389 16.7431 0.146265 4.06146 -4.13218 12.8683
lowerback 5.84703 -1.05802 13.3202
upperback -1.49587 0.366355 16.4617
thorax -5.0585 0.0718377 10.582
lowerneck -11.5163 -8.08052 -5.73105
upperneck 29.239 -19.4038 25.6702
head 16.138 -6.09901 8.61314
rclavicle 3.97569e-015 -8.26944e-014
rhumerus -319.199 -48.6765 -442.32
rradius 109.745
rwrist -58.1579
rhand -53.2803 -14.3256
rfingers 7.12502
rthumb -25.7342 -42.6056
lclavicle 3.97569e-015 -8.26944e-014
lhumerus 261.615 -60.6207 -211.041
lradius 91.0833
lwrist -16.4306
lhand -24.294 2.41123
lfingers 7.12502
lthumb 2.19345 32.3797
rfemur -20.7086 7.44748 -3.39577
rtibia 39.6727
rfoot -24.5113 -4.97713
rtoes -21.9151
lfemur -15.4577 -2.25049 -36.5953
ltibia 29.0338
lfoot -17.16 -0.309733
ltoes -7.32374
1724
root 1.52921 16.7457 0.145356 4.09896 -4.16529 12.8134
lowerback 5.80694 -1.04894 13.4024
upperback -1.51223 0.378106 16.4721
thorax -5.05476 0.0749555 10.5469
lowerneck -11.4246 -8.09158 -5.77304
upperneck 29.2948 -19.433 25.6814
head 16.159 -6.11803 8.63257
rclavicle 4.77083e-015 -4.77083e-014
rhumerus -319.146 -48.7099 -442.465
rradius 109.825
rwrist -58.2064
rhand -53.1943 -14.9664
rfingers 7.12502
rthumb -25.6518 -43.2583
lclavicle 4.77083e-015 -4.77083e-014
lhumerus 261.562 -60.5669 -210.999
lradius 91.1037
lwrist -16.4168
lhand -24.3786 2.41604
lfingers 7.12502
lthumb 2.11172 32.3853
rfemur -20.7304 7.48424 -3.36003
rtibia 39.6059
rfoot -24.4721 -4.96182
rtoes -21.6949
lfemur -15.4956 -2.23466 -36.5484
ltibia 29.0231
lfoot -17.1655 -0.423514
ltoes -6.48913
1725
root 1.53537 16.7473 0.146058 4.12234 -4.16535 12.7478
lowerback 5.70605 -1.06488 13.4989
upperback -1.50525 0.33724 16.4862
thorax -4.98528 0.052708 10.5096
lowerneck -11.3349 -8.064 -5.81257
upperneck 29.3405 -19.4052 25.7103
head 16.1635 -6.11295 8.67061
rclavicle -1.82882e-014 7.31528e-014
rhumerus -319.149 -48.6682 -442.475
rradius 109.791
rwrist -58.2699
rhand -53.4043 -13.7975
rfingers 7.12502
rthumb -25.853 -42.0602
lclavicle -1.82882e-014 7.31528e-014
lhumerus 261.629 -60.5368 -211.088
lradius 91.1308
lwrist -16.4137
lhand -24.3159 2.34943
lfingers 7.12502
lthumb 2.17231 32.3181
rfemur -20.7448 7.48098 -3.30345
rtibia 39.5612
rfoot -24.5303 -5.00955
rtoes -21.7854
lfemur -15.5139 -2.20935 -36.4956
ltibia 29.0093
lfoot -17.1523 -0.439812
ltoes -6.38084
1726
root 1.54081 16.7457 0.147786 4.0695 -4.20438 12.8302
lowerback 5.73712 -1.09263 13.4248
upperback -1.54236 0.309106 16.452
thorax -5.04138 0.0393303 10.516
lowerneck -11.1322 -7.99513 -5.84172
upperneck 29.4117 -19.3293 25.7568
head 16.1418 -6.0922 8.73235
rclavicle -1.51076e-014 2.54444e-014
rhumerus -319.483 -48.6037 -442.186
rradius 109.659
rwrist -58.3836
rhand -53.647 -12.0351
rfingers 7.12502
rthumb -26.0854 -40.2638
lclavicle -1.51076e-014 2.54444e-014
lhumerus 261.511 -60.4137 -211.027
lradius 91.1581
lwrist -16.4257
lhand -24.4685 2.47129
lfingers 7.12502
lthumb 2.02488 32.4414
rfemur -20.7128 7.48602 -3.41557
rtibia 39.5686
rfoot -24.566 -4.94432
rtoes -21.6845
lfemur -15.4457 -2.15714 -36.6097
ltibia 28.9766
lfoot -17.1526 -0.41488
ltoes -6.53865
1727
root 1.54617 16.7438 0.148133 4.03653 -4.20455 12.9073
lowerback 5.7692 -1.10821 13.3732
upperback -1.58192 0.299595 16.4055
thorax -5.10218 0.0343508 10.493
lowerneck -10.9933 -7.98285 -5.82914
upperneck 29.4827 -19.3481 25.7874
head 16.154 -6.10129 8.75702
rclavicle 4.77083e-015 -1.90833e-014
rhumerus -319.739 -48.6376 -441.995
rradius 109.584
rwrist -58.4467
rhand -53.6699 -12.4951
rfingers 7.12502
rthumb -26.1073 -40.7205
lclavicle 4.77083e-015 -1.90833e-014
lhumerus 261.351 -60.3433 -210.923
lradius 91.1889
lwrist -16.4457
lhand -24.6673 2.63799
lfingers 7.12502
lthumb 1.83292 32.6099
rfemur -20.6482 7.43447 -3.52489
rtibia 39.5985
rfoot -24.3976 -4.79718
rtoes -21.2505
lfemur -15.3893 -2.13265 -36.7198
ltibia 28.9332
lfoot -17.1229 -0.360128
ltoes -6.98164
1728
root 1.54993 16.7412 0.147265 4.03485 -4.20857 12.9492
lowerback 5.78517 -1.07657 13.339
upperback -1.5757 0.33993 16.3658
thorax -5.10681 0.0544575 10.4592
lowerneck -11.0651 -8.03018 -5.76178
upperneck 29.5366 -19.4567 25.7772
head 16.2208 -6.12909 8.72347
rclavicle -4.77083e-015 -5.40694e-014
rhumerus -319.672 -48.7826 -442.079
rradius 109.663
rwrist -58.4252
rhand -53.481 -13.6953
rfingers 7.12502
rthumb -25.9265 -41.9474
lclavicle -4.77083e-015 -5.40694e-014
lhumerus 261.22 -60.4459 -210.816
lradius 91.1836
lwrist -16.46
lhand -24.81 2.72421
lfingers 7.12502
lthumb 1.6951 32.6972
rfemur -20.6561 7.4489 -3.59115
rtibia 39.6375
rfoot -24.3241 -4.80569
rtoes -21.4338
lfemur -15.369 -2.1264 -36.7778
ltibia 28.8868
lfoot -17.1091 -0.413015
ltoes -6.79975
